<svg width="144" height="144" viewBox="0 0 144 144" fill="none" xmlns="http://www.w3.org/2000/svg">
<path d="M98.2374 109.612C97.9042 107.994 97.3567 105.328 95.7142 104.09C93.0006 102.019 88.0017 104.328 85.8118 105.304C80.5749 107.637 73.8622 110.041 66.602 112.421C61.1033 108.065 55.7236 103.542 50.0821 99.4004C49.1537 98.7101 46.8448 96.9962 44.3691 97.5437C42.7505 97.9007 41.6793 99.0909 40.5605 100.305C39.4655 101.519 37.6326 103.542 37.5612 105.589C37.466 108.993 42.2982 111.683 44.3691 112.873C46.5353 114.135 48.8681 115.587 51.3437 117.23C49.1061 117.92 46.8686 118.61 44.6786 119.277C42.6077 119.896 36.5615 121.705 35.8949 125.323C35.6569 126.608 36.1092 128.132 36.2758 128.751C36.9899 131.179 38.4896 132.964 39.3465 133.63C42.3934 135.987 48.4634 132.535 53.6527 130.203C57.0804 128.679 60.6034 127.37 64.1502 126.204C69.3633 130.012 74.7192 134.059 79.837 137.915C81.5509 139.224 86.5735 143.057 89.9061 141.462C91.0963 140.891 92.0484 139.629 92.4531 139.129C94.0003 137.13 94.5716 134.844 94.5954 133.797C94.7145 129.941 88.335 127.084 83.4076 124.228C82.0508 123.442 80.7415 122.633 79.4323 121.8C84.0979 120.538 88.7635 119.277 93.3338 117.825C94.4288 117.468 97.1663 116.611 98.1898 114.302C98.9039 112.826 98.5707 111.231 98.2374 109.612Z" fill="#FA0018"/>
<path d="M117.305 46.5556C115.543 56.22 112.068 63.1707 105.165 76.6438C103.808 78.8575 94.2862 94.4015 84.6456 108.612C83.1697 110.779 80.4561 114.682 75.7191 116.539C71.9581 118.015 68.1495 117.729 67.7686 117.706C66.3404 117.587 64.6027 117.444 63.3887 116.753C63.5791 116.801 63.7457 116.849 63.96 116.872C66.4356 117.206 68.7684 115.159 75.1478 106.613C88.3828 88.9504 95.6668 74.6442 95.6668 74.6442C102.57 61.1474 106.045 54.2205 107.807 44.5561C109.306 36.2723 110.52 29.1311 107.116 21.2282C102.07 9.49289 90.6918 4.94633 87.9781 3.97037C85.1217 2.923 82.3604 2.35171 79.6944 2.11367C80.9322 2.01845 81.8367 2.08986 83.384 2.23269C84.2647 2.3041 90.8108 2.923 97.4521 5.99371C101.451 7.82661 111.972 12.5636 116.59 23.2516C120.018 31.1307 118.828 38.2718 117.305 46.5556Z" fill="#ECD3EF"/>
<path d="M107.116 21.2282C102.069 9.4929 90.6912 4.94635 87.9775 3.97039C85.1211 2.92302 82.3598 2.35173 79.6938 2.11369C67.53 0.994902 58.0322 6.87447 56.6992 7.70761C47.6537 13.5158 43.9165 21.8471 42.4644 25.2035C36.1088 39.9143 39.846 54.3871 43.3928 68.122C44.8924 73.9063 44.4402 70.2881 51.5575 90.7595C57.7704 108.612 59.6033 115.682 63.3643 116.777C63.5547 116.825 63.7213 116.872 63.9356 116.896C66.4112 117.229 68.744 115.182 75.1234 106.637C88.3584 88.9742 95.6424 74.6681 95.6424 74.6681C102.546 61.1712 106.021 54.2443 107.782 44.5799C109.33 36.2723 110.52 29.1311 107.116 21.2282Z" fill="#262B2C"/>
<path d="M95.6422 36.4394C95.6422 38.5103 95.666 41.2002 94.4044 44.2947C92.0002 50.2218 86.8348 52.9831 84.502 54.2447C82.4073 55.3635 76.6943 58.339 69.3627 57.0774C69.3627 57.0774 63.3879 56.0062 58.5319 51.7453C56.818 50.2456 55.9611 48.9126 55.6755 48.4604C54.6995 46.9131 54.1282 45.2944 53.6997 43.2235C52.8904 39.1768 51.8668 34.1542 54.152 28.465C56.0087 23.8471 59.008 21.181 60.2696 20.1099C61.5312 19.0149 65.316 15.8014 71.0052 14.8016C78.1702 13.54 86.9776 15.9918 91.8098 22.6331C95.5946 27.7985 95.6184 33.7019 95.6422 36.4394Z" fill="white"/>
</svg>

